<svg width="188" height="35" viewBox="0 0 188 35" fill="none" xmlns="http://www.w3.org/2000/svg">
<path d="M0.24 0.295998H5.136V12.716C5.136 13.316 5.124 13.988 5.1 14.732C5.076 15.476 5.052 16.208 5.028 16.928C5.004 17.624 4.98 18.236 4.956 18.764C4.932 19.268 4.908 19.616 4.884 19.808H4.992L16.872 0.295998H23.388V26H18.528V13.652C18.528 13.004 18.54 12.296 18.564 11.528C18.588 10.736 18.612 9.98 18.636 9.26C18.684 8.54 18.72 7.916 18.744 7.388C18.792 6.836 18.828 6.476 18.852 6.308H18.708L6.792 26H0.24V0.295998ZM34.8087 6.344V13.904H42.2967V6.344H47.6607V26H42.2967V17.9H34.8087V26H29.4447V6.344H34.8087ZM69.5527 10.376H63.1087V26H57.7447V10.376H51.3007V6.344H69.5527V10.376ZM80.9275 5.984C83.6395 5.984 85.7875 6.764 87.3715 8.324C88.9555 9.86 89.7475 12.056 89.7475 14.912V17.504H77.0755C77.1235 19.016 77.5675 20.204 78.4075 21.068C79.2715 21.932 80.4595 22.364 81.9715 22.364C83.2435 22.364 84.3955 22.244 85.4275 22.004C86.4595 21.74 87.5275 21.344 88.6315 20.816V24.956C87.6715 25.436 86.6515 25.784 85.5715 26C84.5155 26.24 83.2315 26.36 81.7195 26.36C79.7515 26.36 78.0115 26 76.4995 25.28C74.9875 24.536 73.7995 23.42 72.9355 21.932C72.0715 20.444 71.6395 18.572 71.6395 16.316C71.6395 14.012 72.0235 12.104 72.7915 10.592C73.5835 9.056 74.6755 7.904 76.0675 7.136C77.4595 6.368 79.0795 5.984 80.9275 5.984ZM80.9635 9.8C79.9315 9.8 79.0675 10.136 78.3715 10.808C77.6995 11.48 77.3035 12.524 77.1835 13.94H84.7075C84.6835 12.74 84.3715 11.756 83.7715 10.988C83.1715 10.196 82.2355 9.8 80.9635 9.8ZM105.041 5.984C107.249 5.984 109.037 6.848 110.405 8.576C111.773 10.28 112.457 12.8 112.457 16.136C112.457 19.472 111.749 22.016 110.333 23.768C108.917 25.496 107.105 26.36 104.897 26.36C103.481 26.36 102.353 26.108 101.513 25.604C100.673 25.076 99.9891 24.488 99.4611 23.84H99.1731C99.3651 24.848 99.4611 25.808 99.4611 26.72V34.64H94.0971V6.344H98.4531L99.2091 8.9H99.4611C99.9891 8.108 100.697 7.424 101.585 6.848C102.473 6.272 103.625 5.984 105.041 5.984ZM103.313 10.268C101.921 10.268 100.937 10.7 100.361 11.564C99.8091 12.428 99.5091 13.748 99.4611 15.524V16.1C99.4611 17.996 99.7371 19.46 100.289 20.492C100.865 21.5 101.897 22.004 103.385 22.004C104.609 22.004 105.509 21.5 106.085 20.492C106.685 19.46 106.985 17.984 106.985 16.064C106.985 12.2 105.761 10.268 103.313 10.268ZM126.022 13.94C129.046 13.94 131.278 14.42 132.718 15.38C134.182 16.34 134.914 17.792 134.914 19.736C134.914 21.632 134.242 23.156 132.898 24.308C131.554 25.436 129.334 26 126.238 26H116.878V6.344H122.242V13.94H126.022ZM129.55 19.808C129.55 18.368 128.338 17.648 125.914 17.648H122.242V22.292H125.986C127.042 22.292 127.894 22.1 128.542 21.716C129.214 21.332 129.55 20.696 129.55 19.808ZM147.092 5.984C149.804 5.984 151.952 6.764 153.536 8.324C155.12 9.86 155.912 12.056 155.912 14.912V17.504H143.24C143.288 19.016 143.732 20.204 144.572 21.068C145.436 21.932 146.624 22.364 148.136 22.364C149.408 22.364 150.56 22.244 151.592 22.004C152.624 21.74 153.692 21.344 154.796 20.816V24.956C153.836 25.436 152.816 25.784 151.736 26C150.68 26.24 149.396 26.36 147.884 26.36C145.916 26.36 144.176 26 142.664 25.28C141.152 24.536 139.964 23.42 139.1 21.932C138.236 20.444 137.804 18.572 137.804 16.316C137.804 14.012 138.188 12.104 138.956 10.592C139.748 9.056 140.84 7.904 142.232 7.136C143.624 6.368 145.244 5.984 147.092 5.984ZM147.128 9.8C146.096 9.8 145.232 10.136 144.536 10.808C143.864 11.48 143.468 12.524 143.348 13.94H150.872C150.848 12.74 150.536 11.756 149.936 10.988C149.336 10.196 148.4 9.8 147.128 9.8ZM171.205 5.984C173.413 5.984 175.201 6.848 176.569 8.576C177.937 10.28 178.621 12.8 178.621 16.136C178.621 19.472 177.913 22.016 176.497 23.768C175.081 25.496 173.269 26.36 171.061 26.36C169.645 26.36 168.517 26.108 167.677 25.604C166.837 25.076 166.153 24.488 165.625 23.84H165.337C165.529 24.848 165.625 25.808 165.625 26.72V34.64H160.261V6.344H164.617L165.373 8.9H165.625C166.153 8.108 166.861 7.424 167.749 6.848C168.637 6.272 169.789 5.984 171.205 5.984ZM169.477 10.268C168.085 10.268 167.101 10.7 166.525 11.564C165.973 12.428 165.673 13.748 165.625 15.524V16.1C165.625 17.996 165.901 19.46 166.453 20.492C167.029 21.5 168.061 22.004 169.549 22.004C170.773 22.004 171.673 21.5 172.249 20.492C172.849 19.46 173.149 17.984 173.149 16.064C173.149 12.2 171.925 10.268 169.477 10.268ZM184.446 20.6C185.262 20.6 185.922 20.864 186.426 21.392C186.954 21.92 187.218 22.604 187.218 23.444C187.218 24.284 186.954 24.98 186.426 25.532C185.922 26.06 185.262 26.324 184.446 26.324C183.654 26.324 182.994 26.048 182.466 25.496C181.938 24.944 181.674 24.26 181.674 23.444C181.674 22.604 181.938 21.92 182.466 21.392C182.994 20.864 183.654 20.6 184.446 20.6Z" fill="black"/>
</svg>
